<?xml version="1.0" encoding="utf-8"?>
<!-- Generator: Adobe Illustrator 25.2.0, SVG Export Plug-In . SVG Version: 6.00 Build 0)  -->
<svg version="1.1" id="Layer_1" xmlns="http://www.w3.org/2000/svg" xmlns:xlink="http://www.w3.org/1999/xlink" x="0px" y="0px"
	 viewBox="0 0 400.19 549.11" style="enable-background:new 0 0 400.19 549.11;" xml:space="preserve">
<style type="text/css">
	.st0{fill-rule:evenodd;clip-rule:evenodd;fill:#FFFFFF;}
	.st1{fill:none;}
	.st2{fill:#FFFFFF;}
	.st3{fill-rule:evenodd;clip-rule:evenodd;fill:#961B20;}
	.st4{fill:#961B20;}
</style>
<path class="st3" d="M392.72,154.14C374.4,102.2,358.05,50.64,340.45,0c-7.29,0-14.58,0-21.87,0c-0.91,0.22,0.11,0.69,0,1.6
	c19.72,58.32,39.75,116.34,59.2,174.94c-25.03,50.53-48.62,102.49-74.13,152.54c-86.58,0-173.16,0-259.74,0
	c-9.35,47.19-17.45,81.01-26.44,128.55c102.58,0,205.98,0.18,308.56,0.18c24-91.1,44.87-171.71,69.36-263.14
	c1.78-6.63,5-13.84,4.8-18.67C399.94,170.04,395.18,161.12,392.72,154.14z"/>
<g>
	<path class="st3" d="M182.44,59.48c0,22.22,0,44.45,0,66.67c-13.87,0.15-24.31-0.69-33.78,3.73
		c-25.92,12.1-30.61,57.49-13.61,80.53c9.79,13.28,24.98,16.53,47.4,14.94c0,22.4,0,44.8,0,67.2
		c-70.73,7.83-107.96-37.39-114.46-99.74C61.3,128.67,93.07,63.96,150.67,59.48C161.82,58.61,171.17,60.13,182.44,59.48z"/>
	<path class="st3" d="M200.59,59.48c44.77,3.34,90.63-9.69,114.96,13.87c33.55,32.49,29.89,120.56-7.56,144.54
		c-13.19,8.45-33.01,8-54.96,7.47c-1.18,21.33-0.17,44.98-0.5,67.2c-17.48,0-34.96,0-52.44,0c0-77.16,0-154.32,0-231.47
		C200.04,60.32,200,59.57,200.59,59.48z M251.01,170.95c11.68-0.38,19.78,1.4,26.72-4.27c9.3-7.59,11.21-31.6,4.54-43.2
		c-6.29-10.93-17.23-9.59-30.76-9.6C250.34,131.84,251.35,152.1,251.01,170.95z"/>
</g>
<g>
	<path class="st2" d="M60.59,375.8c-1.68,0.54-4.12,1.08-6.26,1.08c-7.29,0-12.13-4.71-10.08-14.33
		c1.92-9.04,8.97-13.56,16.01-13.56c2.33,0,3.64,0.35,5.79,0.85l-1.51,7.11c-1.27-0.54-2.58-1.01-4-1.01
		c-3.58,0-6.78,2.36-7.72,6.76c-0.99,4.63,1.03,6.99,4.52,6.99c1.54,0,3.1-0.39,4.77-1.04L60.59,375.8z"/>
	<path class="st2" d="M85.07,376.41h-8.42l4.04-19.01h-5.62l-4.04,19.01h-8.42l5.73-26.96h22.46L85.07,376.41z"/>
	<path class="st2" d="M93.93,349.45h14.48c3.43,0,7.62,2.01,6.07,9.27c-1.5,7.03-5.79,9.93-10.19,9.93h-6.03l-1.65,7.76H88.2
		L93.93,349.45z M99.38,362.39h1.85c2.01,0,4.15-0.46,4.79-3.48c0.61-2.86-1.36-3.21-3.4-3.21h-1.82L99.38,362.39z"/>
	<path class="st2" d="M124.58,349.45h11.59l2.09,26.96h-8.83l-0.2-5.83h-7.1l-2.59,5.83h-8.39L124.58,349.45z M124.67,364.09h4.87
		l-0.51-8.85h-0.06L124.67,364.09z"/>
	<path class="st2" d="M145.09,349.45h13.79c3.8,0,7.22,1.5,6.13,6.64c-0.79,3.71-2.81,5.68-5.93,6.61l-0.02,0.08
		c2.94,0.5,4.2,3.44,3.62,6.14c-1.44,6.8-6.05,7.49-10.61,7.49h-12.72L145.09,349.45z M148.45,370.85h2.2c1.54,0,3.36-0.7,3.8-2.79
		c0.49-2.32-0.99-2.74-2.56-2.74h-2.26L148.45,370.85z M150.81,359.77h2.11c1.48,0,3.19-0.55,3.63-2.59
		c0.43-2.01-0.82-2.62-2.33-2.62h-2.29L150.81,359.77z"/>
	<path class="st2" d="M169.51,349.45h19.01l-1.38,6.49h-10.78l-0.81,3.83h10.3l-1.38,6.49h-10.3l-0.78,3.67h10.99l-1.38,6.49h-19.22
		L169.51,349.45z"/>
	<path class="st2" d="M188.66,364.71l3.24-15.26h20.42l-4.04,19.01h1.26l-2.68,12.59h-8.11l0.98-4.64h-7.92l-0.98,4.64h-8.11
		l2.68-12.59h0.53C187.42,367.88,188.28,366.48,188.66,364.71z M202.6,356.64h-4.65l-1.99,9.35c-0.32,1.5-0.96,2.32-1.61,2.86H200
		L202.6,356.64z"/>
	<path class="st2" d="M220.28,367.53c-1.13,5.33-4.25,9.35-10.72,9.35l-0.29-8.81c2.2,0,3.41-1.39,3.9-3.75l3.16-14.87h20.42
		l-5.73,26.96h-8.42l4.04-19.01h-4.21L220.28,367.53z"/>
	<path class="st2" d="M250.61,376.41l4.16-19.55h-0.06l-8.34,19.55h-12.38l5.73-26.96h7.32L243,368.46h0.06l8-19.01h12.6
		l-5.73,26.96H250.61z"/>
	<path class="st2" d="M266.63,349.45h13.79c3.8,0,7.22,1.5,6.13,6.64c-0.79,3.71-2.81,5.68-5.93,6.61l-0.02,0.08
		c2.94,0.5,4.2,3.44,3.62,6.14c-1.44,6.8-6.05,7.49-10.61,7.49H260.9L266.63,349.45z M270,370.85h2.2c1.54,0,3.35-0.7,3.79-2.79
		c0.49-2.32-0.99-2.74-2.56-2.74h-2.26L270,370.85z M272.36,359.77h2.11c1.48,0,3.2-0.55,3.63-2.59c0.43-2.01-0.82-2.62-2.33-2.62
		h-2.29L272.36,359.77z"/>
	<path class="st2" d="M296.71,349.45h11.59l2.09,26.96h-8.83l-0.2-5.83h-7.1l-2.59,5.83h-8.39L296.71,349.45z M296.81,364.09h4.87
		l-0.51-8.85h-0.06L296.81,364.09z"/>
	<path class="st2" d="M324.36,376.41l1.95-9.15h-1.88c-1.04,0-1.92,0.16-2.68,1.39c-1.04,1.62-2.02,5.83-2.81,7.76h-8.76
		c1.44-2.63,2.23-6.8,4.13-9.66c1.09-1.43,2.42-2.51,4.32-2.9l0.02-0.08c-2.95-0.93-4.61-3.01-3.73-7.14
		c1.1-5.18,4.76-7.19,10.01-7.19h13.6l-5.73,26.96H324.36z M326.87,355.48c-1.7,0-3.37,0.35-3.89,2.78
		c-0.58,2.74,1.07,2.98,2.8,2.98h2.2l1.22-5.76H326.87z"/>
</g>
<g>
	<path class="st2" d="M42.9,392.64h29.68c7.02,0,15.64,3.98,12.57,18.4c-2.96,13.95-11.72,19.7-20.73,19.7H52.06l-3.28,15.41H31.53
		L42.9,392.64z M54.24,418.32h3.8c4.12,0,8.5-0.92,9.78-6.9c1.21-5.67-2.84-6.36-7.02-6.36h-3.73L54.24,418.32z"/>
	<path class="st2" d="M105.5,447.07c-15.71,0-22.91-9.43-19.03-27.67c3.81-17.94,15.09-27.68,30.8-27.68s23.04,9.74,19.22,27.68
		C132.62,437.64,121.21,447.07,105.5,447.07z M108.24,434.19c6.82,0,9.01-9.05,10.23-14.8c1.06-4.98,2.63-14.8-3.94-14.8
		c-6.37,0-8.97,9.81-10.03,14.8C103.28,425.14,102.06,434.19,108.24,434.19z"/>
	<path class="st2" d="M172.79,444.92c-3.45,1.07-8.44,2.15-12.82,2.15c-14.94,0-24.92-9.35-20.87-28.44
		c3.81-17.94,18.21-26.91,32.63-26.91c4.76,0,7.45,0.69,11.87,1.69l-3,14.11c-2.61-1.07-5.31-2-8.21-2
		c-7.34,0-13.87,4.68-15.73,13.42c-1.96,9.2,2.2,13.88,9.35,13.88c3.15,0,6.34-0.77,9.78-2.07L172.79,444.92z"/>
	<path class="st2" d="M214.52,444.92c-3.45,1.07-8.44,2.15-12.82,2.15c-14.94,0-24.92-9.35-20.87-28.44
		c3.81-17.94,18.21-26.91,32.63-26.91c4.76,0,7.45,0.69,11.88,1.69l-3,14.11c-2.61-1.07-5.31-2-8.21-2
		c-7.34,0-13.87,4.68-15.73,13.42c-1.96,9.2,2.2,13.88,9.35,13.88c3.15,0,6.34-0.77,9.77-2.07L214.52,444.92z"/>
	<path class="st2" d="M252.44,446.15l8.24-38.79h-0.13l-16.81,38.79h-25.37l11.37-53.51h15l-8.02,37.72h0.13L253,392.64h25.82
		l-11.37,53.51H252.44z"/>
	<path class="st2" d="M299.96,446.15l3.86-18.17h-3.86c-2.12,0-3.93,0.3-5.48,2.76c-2.1,3.22-4.07,11.58-5.66,15.41h-17.96
		c2.91-5.21,4.48-13.49,8.33-19.16c2.21-2.84,4.92-4.98,8.82-5.75l0.03-0.15c-6.05-1.84-9.48-5.98-7.73-14.18
		c2.18-10.28,9.66-14.26,20.41-14.26h27.88l-11.37,53.51H299.96z M304.8,404.59c-3.48,0-6.91,0.69-7.94,5.52
		c-1.15,5.44,2.22,5.9,5.76,5.9h4.51l2.43-11.42H304.8z"/>
</g>
<polygon class="st3" points="303.51,548.79 0,549.11 9.61,502.07 314.71,502.07 "/>
<g>
	<path class="st2" d="M19.93,522.06c2.15,0,4.45-0.42,4.79-2.12c0.36-1.79-1.7-2.21-3.78-2.21c-2.63,0-5.18,0.58-7.47,1.46
		l1.49-7.45c2.71-0.62,5.71-1,8.38-1c5.66,0,12.7,1.04,11.23,8.45c-0.65,3.25-3.61,5.49-6.57,6.2c3.12,0.87,5.29,2.95,4.5,6.91
		c-1.23,6.16-8.02,8.49-13.57,8.49c-3.55,0-6.5-0.41-9.82-1.37l1.5-7.53c2.26,1.25,5.02,1.91,7.68,1.91c2.07,0,4.22-0.91,4.54-2.54
		c0.35-1.75-0.82-2.74-4.08-2.74h-3.59l1.29-6.45H19.93z"/>
	<path class="st2" d="M52.42,511.24h13.65l3.42,29.04h-10.4L58.65,534h-8.36l-2.85,6.28h-9.88L52.42,511.24z M53.05,527.01h5.74
		l-0.91-9.53H57.8L53.05,527.01z"/>
	<path class="st2" d="M122.76,540.28h-9.92l4.09-20.47h-6.62l-4.09,20.47H96.3l5.8-29.04h26.46L122.76,540.28z"/>
	<path class="st2" d="M138.17,511.24h17.06c4.03,0,9.04,2.16,7.48,9.98c-1.51,7.57-6.47,10.69-11.65,10.69h-7.1l-1.67,8.36h-9.92
		L138.17,511.24z M145.04,525.18h2.18c2.37,0,4.87-0.5,5.52-3.75c0.62-3.08-1.71-3.45-4.12-3.45h-2.15L145.04,525.18z"/>
	<path class="st2" d="M180.19,511.24h13.65l3.42,29.04h-10.4l-0.45-6.28h-8.36l-2.85,6.28h-9.88L180.19,511.24z M180.82,527.01h5.74
		l-0.91-9.53h-0.07L180.82,527.01z"/>
	<path class="st2" d="M210.27,511.24h16.24c4.47,0,8.55,1.62,7.45,7.15c-0.8,4-3.11,6.12-6.75,7.12l-0.02,0.08
		c3.48,0.54,5.07,3.7,4.49,6.61c-1.46,7.32-6.86,8.07-12.23,8.07h-14.98L210.27,511.24z M214.99,534.29h2.59
		c1.81,0,3.92-0.74,4.37-2.99c0.5-2.5-1.26-2.95-3.12-2.95h-2.66L214.99,534.29z M217.37,522.35h2.48c1.74,0,3.75-0.58,4.18-2.79
		c0.43-2.16-1.06-2.83-2.84-2.83h-2.7L217.37,522.35z"/>
	<path class="st2" d="M242.72,527.67l3.28-16.43h24.05l-4.09,20.47h1.48l-2.71,13.56h-9.55l1-4.99h-9.32l-1,4.99h-9.55l2.71-13.56
		h0.63C241.37,531.08,242.34,529.59,242.72,527.67z M258.85,518.98h-5.48l-2.01,10.07c-0.32,1.62-1.05,2.5-1.8,3.08h6.66
		L258.85,518.98z"/>
	<path class="st2" d="M276.93,511.24h10.77c0,0,2.79,13.1,2.78,13.15l7.07-13.15h9.92l-17.56,29.04h-10.06l4.21-6.07L276.93,511.24z
		"/>
</g>
<g>
	<path class="st4" d="M38.26,494.35H27.94l4.76-20.46h-6.89l-4.76,20.46H10.73l6.76-29.03h27.52L38.26,494.35z"/>
	<path class="st4" d="M62.73,465.32h14.21l2.83,29.03H68.95l-0.31-6.28h-8.7l-3.12,6.28H46.55L62.73,465.32z M62.99,481.08h5.97
		l-0.71-9.52h-0.08L62.99,481.08z"/>
	<path class="st4" d="M119.76,473.89h-9.08l-4.76,20.46H95.6l4.76-20.46h-9.08l1.99-8.57h28.49L119.76,473.89z"/>
	<path class="st4" d="M131.01,465.32h17.75c4.2,0,9.35,2.17,7.53,9.98c-1.76,7.57-6.99,10.69-12.38,10.69h-7.39l-1.95,8.36h-10.32
		L131.01,465.32z M137.81,479.25h2.27c2.46,0,5.08-0.5,5.84-3.74c0.72-3.08-1.7-3.45-4.2-3.45h-2.23L137.81,479.25z"/>
	<path class="st4" d="M182.01,494.35l4.9-21.04h-0.08l-10.02,21.04h-15.17l6.76-29.03h8.97l-4.76,20.46h0.08l9.61-20.46h15.44
		l-6.76,29.03H182.01z"/>
	<path class="st4" d="M215.16,494.85c-9.39,0-13.7-5.12-11.4-15.02c2.26-9.73,9-15.01,18.39-15.01c9.39,0,13.78,5.28,11.52,15.01
		C231.36,489.73,224.56,494.85,215.16,494.85z M216.79,487.86c4.08,0,5.38-4.91,6.11-8.03c0.63-2.7,1.56-8.02-2.37-8.02
		c-3.81,0-5.36,5.32-5.99,8.02C213.81,482.96,213.09,487.86,216.79,487.86z"/>
	<path class="st4" d="M271.6,473.89h-9.08l-4.76,20.46h-10.32l4.76-20.46h-9.08l2-8.57h28.49L271.6,473.89z"/>
	<path class="st4" d="M293.2,465.32l-1.95,8.36h6.7c5.39,0,9.17,3.12,7.41,10.69c-1.82,7.82-7.98,9.98-12.18,9.98h-17.05l6.76-29.03
		H293.2z M289.28,487.61c2.5,0,5.09-0.38,5.81-3.45c0.75-3.25-1.63-3.75-4.1-3.75h-1.58l-1.67,7.2H289.28z M323.15,465.32
		l-6.76,29.03h-10.32l6.76-29.03H323.15z"/>
</g>
</svg>
